<?xml version="1.0" encoding="UTF-8"?>
<svg version="1.1" xmlns="http://www.w3.org/2000/svg" width="31" height="32">
<path d="M0 0 C10.23 0 20.46 0 31 0 C31 10.56 31 21.12 31 32 C20.77 32 10.54 32 0 32 C0 21.44 0 10.88 0 0 Z " fill="#F7F7F7" transform="translate(0,0)"/>
<path d="M0 0 C3.16118708 1.63913404 5.26864575 3.00269875 7.375 5.875 C8.69601084 10.36643685 8.48383625 13.10144696 6.25 17.25 C3.05882353 21.1503268 3.05882353 21.1503268 0 22 C-6.91764706 22.65882353 -6.91764706 22.65882353 -10.875 20.25 C-13.99497149 16.94650078 -14.84963004 15.1599968 -15.4375 10.625 C-14.85694294 5.8146701 -13.38607407 4.38607407 -10 1 C-6.78501861 -0.6074907 -3.48701742 -0.47314549 0 0 Z " fill="#0F0F0F" transform="translate(19,5)"/>
</svg>
