<?xml version="1.0" encoding="utf-8"?>
<!-- Generator: Adobe Illustrator 26.0.2, SVG Export Plug-In . SVG Version: 6.00 Build 0)  -->
<svg version="1.1" id="Layer_1" xmlns="http://www.w3.org/2000/svg" xmlns:xlink="http://www.w3.org/1999/xlink" x="0px" y="0px"
	 viewBox="0 0 137 48" style="enable-background:new 0 0 137 48;" xml:space="preserve">
<style type="text/css">
	.st0{fill:#707070;}
	.st1{fill:#252525;}
</style>
<path class="st0" d="M36.1,12.9v29.1h-4V26H16.4V30h11.7v2c0,5.1,0,10.2,0,15.2c0,0.3,0,0.6,0.1,0.8c4.4-0.7,8.5-2.6,11.8-5.4V22.1
	C39.9,19,39.3,15.7,36.1,12.9z"/>
<path class="st0" d="M28.2,14.1h4V5.4c2.4,0.5,11.4,6.4,11.8,15.7v17.2c2.9-4,4.7-9,4.7-14.3c0-12.1-8.8-22.1-20.4-24
	c0,0.2,0,0.5-0.1,0.8L28.2,14.1z"/>
<path class="st0" d="M12.4,35.1V6.1h4V22h15.7V18H20.4v-2c0-5.1,0-10.2,0-15.2c0-0.3,0-0.6-0.1-0.8c-4.4,0.7-8.5,2.6-11.8,5.4v20.4
	C8.6,28.9,9.2,32.3,12.4,35.1z"/>
<path class="st0" d="M20.4,33.9h-4v8.7C14.1,42.1,5,36.2,4.7,26.9V9.7C1.7,13.7,0,18.6,0,24c0,12.1,8.8,22.1,20.4,24
	c0-0.2,0-0.5,0.1-0.8L20.4,33.9z"/>
<path class="st1" d="M62.3,34.6V13.8h3.2v8.4h2.8v-8.4h3.2v20.8h-3.2v-9.7h-2.8v9.7H62.3z"/>
<path class="st1" d="M84.7,28.3l-1.4-10.4h0L82,28.3H84.7z M78.2,34.6l3-20.8h4.2l3.2,20.8h-3L85,30.9h-3.4l-0.4,3.7H78.2z"/>
<path class="st1" d="M95.1,34.6V13.8h2.5l4.4,12.5l-0.2-5.7v-6.8h2.8v20.8h-2.2l-4.5-12.9l0.2,5.5v7.5H95.1z"/>
<path class="st1" d="M111.8,34.6V13.8h3.2v9.6l3.2-9.6h3.3L118,24.1l3.7,10.5h-3.3l-3.3-9.7v9.7H111.8z"/>
<path class="st1" d="M130.9,31.4c0.2,0.5,0.6,0.7,1.1,0.7s1-0.2,1.1-0.7c0.2-0.5,0.3-1.3,0.3-2.5v-9.7c0-1-0.1-1.7-0.3-2.2
	c-0.2-0.5-0.5-0.7-1.1-0.7c-0.5,0-0.9,0.2-1.1,0.7c-0.2,0.5-0.3,1.2-0.3,2.1v9.7C130.7,30,130.8,30.9,130.9,31.4z M135.6,33.3
	c-0.7,1-1.9,1.5-3.5,1.5c-1.6,0-2.8-0.5-3.5-1.5c-0.7-1-1.1-2.5-1.1-4.5v-9.5c0-3.8,1.6-5.7,4.7-5.7c1.6,0,2.8,0.5,3.5,1.5
	c0.7,1,1.1,2.4,1.1,4.3v9.5C136.7,30.8,136.3,32.3,135.6,33.3z"/>
</svg>
